<?xml version="1.0" ?><svg style="enable-background:new 0 0 48 48;" version="1.1" viewBox="0 0 48 48" xml:space="preserve" xmlns="http://www.w3.org/2000/svg" xmlns:xlink="http://www.w3.org/1999/xlink"><g id="Icons"><g><path d="M29.96964,34.42183c-2.02119,1.16029-4.41312,1.75142-6.95133,1.54892    c-5.60281-0.44698-10.246-4.86713-10.93402-10.44548c-0.96609-7.83286,5.63094-14.42033,13.46651-13.43782    c5.44026,0.68216,9.79877,5.12997,10.38719,10.58117c0.31703,2.937-0.43073,5.68612-1.89043,7.90987    c-0.05619,0.08561-0.08127,0.18688-0.06976,0.28864L34.45,35.03999l-4.17938-0.6741    C30.16652,34.34911,30.06108,34.36934,29.96964,34.42183z" style="fill:#F4F4F4;"/><path d="    M15.63247,22.08547c0-3.75297,3.91996-6.98451,7.67292-6.98451" style="fill:none;stroke:#303030;stroke-width:0.7;stroke-linecap:round;stroke-linejoin:round;stroke-miterlimit:10;"/><path d="    M29.96964,34.42183c-2.02119,1.16029-4.41312,1.75142-6.95133,1.54892c-5.60281-0.44698-10.246-4.86713-10.93402-10.44548    c-0.96609-7.83286,5.63094-14.42033,13.46651-13.43782c5.44026,0.68216,9.79877,5.12997,10.38719,10.58117    c0.31703,2.937-0.43073,5.68612-1.89043,7.90987c-0.05619,0.08561-0.08127,0.18688-0.06976,0.28864L34.45,35.03999    l-4.17938-0.6741C30.16652,34.34911,30.06108,34.36934,29.96964,34.42183z" style="fill:none;stroke:#303030;stroke-width:0.7;stroke-linecap:round;stroke-linejoin:round;stroke-miterlimit:10;"/><path d="    M15.63247,24.19004c0,0-0.0191,0.71453,0.23147,1.42906" style="fill:none;stroke:#303030;stroke-width:0.7;stroke-linecap:round;stroke-linejoin:round;stroke-miterlimit:10;"/></g></g></svg>